# xmcd
#
# Track frame offsets: 
#        150
#        13420
#        28310
#        48855
#        68485
#        85655
#        104805
#        121232
#        139249
#        155594
#        177354
#        194576
#        213433
#
# Disc length: 3124 seconds
#
# Revision: 0
# Processed by: cddbd v1.5.2PL0 Copyright (c) Steve Scherf et al.
# Submitted via: ExactAudioCopy v1.0b3
#
DISCID=bd0c320d
DTITLE=Beth Hart and The Ocean of Souls - Beth Hart
DYEAR=2009
DGENRE=Blues
TTITLE0=Halfway to Heaven
TTITLE1=Just Call Me Up
TTITLE2=Can't Hear the Word
TTITLE3=Get Over It
TTITLE4=Love Suffers All
TTITLE5=I Felt Him Cry
TTITLE6=Lucy in the Sky With Diamonds
TTITLE7=Am I the One
TTITLE8=It's Too Late
TTITLE9=Show Me the Way
TTITLE10=Love Thing
TTITLE11=On With the Show
TTITLE12=Keep On Goin'
EXTD=
EXTT0=
EXTT1=
EXTT2=
EXTT3=
EXTT4=
EXTT5=
EXTT6=
EXTT7=
EXTT8=
EXTT9=
EXTT10=
EXTT11=
EXTT12=
PLAYORDER=
